<?xml version="1.0" encoding="UTF-8"?><svg id="Layer_2" xmlns="http://www.w3.org/2000/svg" width="862.12" height="196.08" viewBox="0 0 862.12 196.08"><g id="Layer_1-2"><path d="m105.44,0h-27.35c-.82,0-1.55.5-1.85,1.25L16.98,148.18c-.4.99.33,2.06,1.39,2.06h27.34c.82,0,1.55-.5,1.85-1.25L106.83,2.06c.4-.99-.33-2.06-1.39-2.06Z"/><path d="m9.77,166.03L.11,190c-.4.99.33,2.06,1.39,2.06h128.66c1.06,0,1.79-1.07,1.39-2.06l-9.62-23.97c-.46-1.14-1.56-1.88-2.78-1.88H12.56c-1.22,0-2.32.74-2.78,1.88Z"/><path d="m111.47,29.54l-13.74,34.08c-.29.72-.29,1.52,0,2.24l50.14,124.94c.3.76,1.04,1.26,1.86,1.26h27.61c1.06,0,1.79-1.07,1.39-2.06L114.25,29.54c-.5-1.25-2.28-1.25-2.78,0Z"/><path d="m268.8,79.52v-19.41c0-1.68-1.13-2.76-2.89-2.76h-13.11c-11.45,0-20.81,4.69-32.32,16.19-.12.12-.23.19-.3.24l-2.61-11.43c-.55-1.94-1.78-2.35-2.7-2.35h-19.41c-1.7,0-2.76,1.06-2.76,2.76v128.05c0,1.7,1.06,2.76,2.76,2.76h21.93c1.75,0,2.89-1.08,2.89-2.76v-70.99c-.27-10.94,3.58-21.3,10.58-28.43,5.89-6,13.44-9.18,21.95-9.1h13.11c1.75,0,2.89-1.08,2.89-2.76Z"/><path d="m331.07,82.28c16.9,0,28.74,7.79,34.24,22.54.44,1.45,1.5,2.29,2.94,2.29h22.94c2.75,0,2.89-1.98,2.89-2.38,0-.16,0-.57-.23-1-7.35-29.48-30.21-46.38-62.77-46.38-20.39,0-36.53,6.4-47.99,19.02-11.46,12.62-17.28,29.58-17.28,50.41s5.81,37.66,17.28,50.29c11.46,12.62,27.61,19.02,47.99,19.02,16.38,0,30.19-4.09,41.04-12.16,10.72-7.98,18.03-19.45,21.73-34.09.24-.43.24-.84.24-1,0-.4-.14-2.38-2.89-2.38h-22.94c-1.43,0-2.5.83-2.94,2.29-5.47,14.67-17.31,22.42-34.24,22.42-11.58,0-20.81-4.1-27.46-12.19-6.89-8.24-10.24-18.77-10.24-32.18s3.44-24.18,10.25-32.32c6.64-8.08,15.87-12.18,27.45-12.18Z"/><path d="m468.05,58.85c-20.04,0-35.66,6.17-47.01,18.52-11.34,12.35-17.01,28.86-17.01,49.41s5.67,36.8,17.01,49.15c11.35,12.47,26.97,18.65,47.01,18.65s35.42-6.18,46.89-18.65c11.46-12.35,17.14-28.74,17.14-49.15s-5.68-36.8-17.14-49.28c-11.47-12.48-27.1-18.65-46.89-18.65Zm28.86,101.07c-7.05,8.45-16.63,12.73-28.86,12.73s-21.67-4.28-28.73-12.73c-7.18-8.44-10.71-19.53-10.71-33.14s3.53-24.71,10.71-33.28c7.06-8.44,16.63-12.72,28.73-12.72s21.81,4.28,28.86,12.72c7.06,8.45,10.59,19.54,10.59,33.28s-3.53,24.7-10.59,33.14Z"/><path d="m640.59,65.9c-8.9-5.68-19.64-8.55-31.94-8.55-14.55,0-27.3,5.96-35,16.38-.04.06-.19.12-.25.1,0,0,0,0,0,0l-2.5-11.48c-.55-1.94-1.78-2.35-2.7-2.35h-19.41c-1.7,0-2.76,1.06-2.76,2.76v128.05c0,1.7,1.06,2.76,2.76,2.76h21.93c1.7,0,2.76-1.06,2.76-2.76v-70.99c-.27-10.89,3.59-21.23,10.6-28.38,5.93-6.04,13.57-9.22,22.05-9.16,9.86,0,32.78,3.66,32.78,37.57v70.96c0,1.7,1.06,2.76,2.76,2.76h21.93c1.75,0,2.89-1.08,2.89-2.76v-70.96c0-11.58-2.08-22.13-6.19-31.38-4.29-9.24-10.92-16.83-19.71-22.56Z"/><path d="m715.15,8.83h-27.1c-1.7,0-2.76,1.06-2.76,2.76v27.1c0,1.75,1.08,2.89,2.76,2.89h27.1c1.7,0,2.89-1.19,2.89-2.89V11.59c0-1.68-1.13-2.76-2.89-2.76Z"/><path d="m690.7,59.99h21.93c1.52,0,2.76,1.24,2.76,2.76v128.04c0,1.52-1.24,2.76-2.76,2.76h-21.93c-1.52,0-2.76-1.24-2.76-2.76V62.75c0-1.52,1.24-2.76,2.76-2.76Z"/><path d="m859.23,146.45h-22.94c-1.43,0-2.5.83-2.94,2.29-5.47,14.67-17.31,22.42-34.24,22.42-11.58,0-20.81-4.1-27.46-12.19-6.89-8.24-10.24-18.77-10.24-32.18s3.44-24.18,10.25-32.32c6.64-8.08,15.87-12.18,27.45-12.18,16.9,0,28.74,7.79,34.24,22.54.44,1.45,1.5,2.29,2.94,2.29h22.94c2.75,0,2.89-1.98,2.89-2.38,0-.16,0-.57-.23-1-7.35-29.48-30.21-46.38-62.77-46.38-20.39,0-36.53,6.4-47.99,19.02-11.46,12.62-17.28,29.58-17.28,50.41s5.81,37.66,17.28,50.29c11.46,12.62,27.61,19.02,47.99,19.02,16.38,0,30.19-4.09,41.04-12.16,10.72-7.98,18.03-19.45,21.73-34.09.24-.43.24-.84.24-1,0-.4-.14-2.38-2.89-2.38Z"/></g></svg>